<svg width="21" height="20" viewBox="0 0 21 20" fill="none" xmlns="http://www.w3.org/2000/svg">
<path d="M19.9268 8.28933H19.1459V8.24909H10.4205V12.1271H15.8996C15.1002 14.3845 12.9523 16.005 10.4205 16.005C7.20809 16.005 4.60355 13.4005 4.60355 10.1881C4.60355 6.97567 7.20809 4.37113 10.4205 4.37113C11.9033 4.37113 13.2524 4.93052 14.2796 5.84427L17.0218 3.10206C15.2903 1.48835 12.9741 0.493164 10.4205 0.493164C5.06648 0.493164 0.725586 4.83406 0.725586 10.1881C0.725586 15.5421 5.06648 19.883 10.4205 19.883C15.7745 19.883 20.1154 15.5421 20.1154 10.1881C20.1154 9.53803 20.0485 8.9035 19.9268 8.28933Z" fill="#FFC107"/>
<path d="M10.42 19.8831C12.9242 19.8831 15.1995 18.9247 16.9199 17.3663L13.9193 14.8272C12.9133 15.5923 11.6839 16.0061 10.42 16.0051C7.89831 16.0051 5.75719 14.3972 4.95057 12.1533L1.78906 14.5892C3.39357 17.7289 6.65203 19.8831 10.42 19.8831Z" fill="#4CAF50"/>
<path d="M19.9263 8.28926H19.1453V8.24902H10.4199V12.127H15.899C15.5166 13.2014 14.8279 14.1402 13.9178 14.8275L13.9193 14.8265L16.9199 17.3656C16.7076 17.5586 20.1148 15.0355 20.1148 10.188C20.1148 9.53796 20.0479 8.90343 19.9263 8.28926Z" fill="#1976D2"/>
<path d="M1.84277 5.67558L5.02804 8.01157C5.88991 5.87772 7.97723 4.37113 10.4199 4.37113C11.9027 4.37113 13.2517 4.93052 14.2789 5.84427L17.0211 3.10206C15.2896 1.48835 12.9735 0.493164 10.4199 0.493164C6.69605 0.493164 3.46667 2.59551 1.84277 5.67558Z" fill="#FF3D00"/>
</svg>
