<svg width="20" height="20" viewBox="0 0 20 20" fill="none" xmlns="http://www.w3.org/2000/svg">
<path d="M14.5333 7.77499H13.6166V5.33333C13.6166 4.37413 13.2356 3.45421 12.5573 2.77596C11.8791 2.0977 10.9592 1.71666 9.99997 1.71666C9.04077 1.71666 8.12085 2.0977 7.4426 2.77596C6.76434 3.45421 6.3833 4.37413 6.3833 5.33333V7.77499H5.46663C4.9141 7.77499 4.3842 7.99449 3.99349 8.38519C3.60279 8.77589 3.3833 9.30579 3.3833 9.85833V16.2C3.38484 16.7521 3.60483 17.2811 3.9952 17.6714C4.38556 18.0618 4.91457 18.2818 5.46663 18.2833H14.5333C15.0854 18.2818 15.6144 18.0618 16.0047 17.6714C16.3951 17.2811 16.6151 16.7521 16.6166 16.2V9.85833C16.6166 9.30579 16.3971 8.77589 16.0064 8.38519C15.6157 7.99449 15.0858 7.77499 14.5333 7.77499ZM7.21663 5.33333C7.21663 4.59514 7.50988 3.88719 8.03185 3.36521C8.55383 2.84324 9.26178 2.54999 9.99997 2.54999C10.7382 2.54999 11.4461 2.84324 11.9681 3.36521C12.4901 3.88719 12.7833 4.59514 12.7833 5.33333V7.77499H7.21663V5.33333ZM15.7833 16.2C15.7811 16.5308 15.6487 16.8475 15.4148 17.0815C15.1808 17.3154 14.8641 17.4478 14.5333 17.45H5.46663C5.13579 17.4478 4.81911 17.3154 4.58516 17.0815C4.35122 16.8475 4.21882 16.5308 4.21663 16.2V9.85833C4.21663 9.52681 4.34833 9.20886 4.58275 8.97444C4.81717 8.74002 5.13511 8.60833 5.46663 8.60833H14.5333C14.8648 8.60833 15.1828 8.74002 15.4172 8.97444C15.6516 9.20886 15.7833 9.52681 15.7833 9.85833V16.2Z" fill="#4B5563"/>
<path d="M10.8334 12.4583C10.8343 12.6041 10.7961 12.7474 10.7228 12.8735C10.6495 12.9995 10.5439 13.1036 10.4168 13.175V14.425C10.4168 14.5355 10.3729 14.6415 10.2947 14.7196C10.2166 14.7978 10.1106 14.8417 10.0001 14.8417C9.88959 14.8417 9.78361 14.7978 9.70547 14.7196C9.62733 14.6415 9.58343 14.5355 9.58343 14.425V13.175C9.45634 13.1036 9.35067 12.9995 9.2774 12.8735C9.20413 12.7474 9.16593 12.6041 9.16676 12.4583C9.16676 12.2373 9.25456 12.0254 9.41084 11.8691C9.56712 11.7128 9.77908 11.625 10.0001 11.625C10.2211 11.625 10.4331 11.7128 10.5894 11.8691C10.7456 12.0254 10.8334 12.2373 10.8334 12.4583Z" fill="#4B5563"/>
</svg>
