<svg width="20" height="20" viewBox="0 0 20 20" fill="none" xmlns="http://www.w3.org/2000/svg">
<path d="M4.16675 4.16667H15.0001C15.6631 4.16667 16.299 4.43006 16.7678 4.8989C17.2367 5.36775 17.5001 6.00363 17.5001 6.66667V14.1667C17.5001 14.8297 17.2367 15.4656 16.7678 15.9344C16.299 16.4033 15.6631 16.6667 15.0001 16.6667H4.16675C3.50371 16.6667 2.86782 16.4033 2.39898 15.9344C1.93014 15.4656 1.66675 14.8297 1.66675 14.1667V6.66667C1.66675 6.00363 1.93014 5.36775 2.39898 4.8989C2.86782 4.43006 3.50371 4.16667 4.16675 4.16667ZM4.16675 5.00001C3.75008 5.00001 3.38341 5.14167 3.10008 5.39167L9.58341 9.58334L16.0667 5.39167C15.7834 5.14167 15.4167 5.00001 15.0001 5.00001H4.16675ZM9.58341 10.5917L2.60841 6.06667C2.54175 6.25001 2.50008 6.45834 2.50008 6.66667V14.1667C2.50008 14.6087 2.67568 15.0326 2.98824 15.3452C3.3008 15.6577 3.72472 15.8333 4.16675 15.8333H15.0001C15.4421 15.8333 15.866 15.6577 16.1786 15.3452C16.4912 15.0326 16.6667 14.6087 16.6667 14.1667V6.66667C16.6667 6.45834 16.6251 6.25001 16.5584 6.06667L9.58341 10.5917Z" fill="#4B5563"/>
</svg>
