<svg width="36" height="35" viewBox="0 0 36 35" fill="none" xmlns="http://www.w3.org/2000/svg">
<path fill-rule="evenodd" clip-rule="evenodd" d="M18 30.625V21.875H20.1875V30.625H31.125V10.9375H33.3125V30.625C33.3125 31.2052 33.082 31.7616 32.6718 32.1718C32.2616 32.5821 31.7052 32.8125 31.125 32.8125H4.875C4.29484 32.8125 3.73844 32.5821 3.3282 32.1718C2.91797 31.7616 2.6875 31.2052 2.6875 30.625V26.25H4.875V30.625H18ZM28.6159 8.43067L22.0556 14.9932C22.4065 15.7236 22.4747 16.5581 22.2471 17.3358C22.0194 18.1136 21.512 18.7796 20.8226 19.2055C20.1331 19.6314 19.3105 19.7872 18.5131 19.6427C17.7157 19.4983 17 19.0639 16.5037 18.4232L10.5669 20.4007L9.25 20.8404C9.2362 21.6143 8.9492 22.3585 8.43973 22.9413C7.93027 23.5242 7.23116 23.9081 6.46597 24.0253C5.70079 24.1425 4.91881 23.9853 4.25828 23.5817C3.59775 23.178 3.1012 22.5538 2.8564 21.8195C2.61161 21.0851 2.63434 20.2878 2.92057 19.5686C3.20681 18.8493 3.73811 18.2544 4.42057 17.8891C5.10302 17.5237 5.89268 17.4114 6.64995 17.572C7.40721 17.7326 8.08332 18.1557 8.55875 18.7666L15.8125 16.3472C15.8223 15.798 15.9697 15.26 16.2414 14.7826C16.5131 14.3052 16.9003 13.9036 17.3675 13.6147C17.8347 13.3258 18.367 13.1589 18.9155 13.1291C19.464 13.0993 20.0112 13.2078 20.5069 13.4444L27.0694 6.88192C26.7358 6.18346 26.6598 5.38954 26.8549 4.64049C27.05 3.89144 27.5037 3.23549 28.1357 2.78858C28.7677 2.34166 29.5373 2.13256 30.3086 2.19824C31.0798 2.26391 31.8031 2.60013 32.3504 3.14746C32.8977 3.6948 33.2339 4.41801 33.2996 5.18926C33.3653 5.96052 33.1562 6.73016 32.7093 7.36216C32.2624 7.99415 31.6064 8.44781 30.8574 8.64294C30.1083 8.83806 29.3144 8.7621 28.6159 8.42848" fill="white"/>
</svg>
