<svg width="16" height="18" viewBox="0 0 16 18" fill="none" xmlns="http://www.w3.org/2000/svg">
<g clip-path="url(#clip0_7_492)">
<path d="M7.01412 2.74916C7.54306 2.16841 8.45679 2.16841 8.98572 2.74916L9.66586 3.49598C9.93312 3.7895 10.3173 3.94863 10.7139 3.9301L11.7229 3.88294C12.5075 3.84627 13.1537 4.49242 13.1171 5.27707L13.0699 6.28608C13.0513 6.68263 13.2105 7.06682 13.504 7.33412L14.2508 8.01424C14.8316 8.54318 14.8316 9.45691 14.2508 9.98584L13.504 10.666C13.2105 10.9332 13.0513 11.3174 13.0699 11.714L13.1171 12.723C13.1537 13.5076 12.5075 14.1538 11.7229 14.1172L10.7139 14.07C10.3173 14.0514 9.93312 14.2106 9.66586 14.5041L8.98572 15.2509C8.45679 15.8317 7.54306 15.8317 7.01412 15.2509L6.33399 14.5041C6.0667 14.2106 5.68251 14.0514 5.28595 14.07L4.27694 14.1172C3.4923 14.1538 2.84615 13.5076 2.88282 12.723L2.92997 11.714C2.94851 11.3174 2.78937 10.9332 2.49586 10.666L1.74904 9.98584C1.16829 9.45691 1.16829 8.54318 1.74904 8.01424L2.49586 7.33412C2.78937 7.06682 2.94851 6.68263 2.92997 6.28608L2.88282 5.27706C2.84615 4.49242 3.4923 3.84627 4.27695 3.88294L5.28595 3.9301C5.68251 3.94863 6.0667 3.7895 6.33399 3.49598L7.01412 2.74916Z" fill="#EDEDED" stroke="#1A1A1A" stroke-width="1.06667"/>
<path d="M6 8.99996L7.33333 10.3333L10 7.66663" stroke="#1A1A1A" stroke-width="1.06667" stroke-linecap="round" stroke-linejoin="round"/>
</g>
<defs>
<clipPath id="clip0_7_492">
<rect width="16" height="16" fill="white" transform="translate(0 1)"/>
</clipPath>
</defs>
</svg>
