<svg width="36" height="35" viewBox="0 0 36 35" fill="none" xmlns="http://www.w3.org/2000/svg">
<path d="M5.8666 18.9583L5.0966 19.7342C5.30143 19.9372 5.57818 20.0511 5.8666 20.0511C6.15502 20.0511 6.43176 19.9372 6.6366 19.7342L5.8666 18.9583ZM9.0866 17.3046C9.29275 17.1 9.40918 16.8219 9.41027 16.5314C9.41137 16.241 9.29704 15.962 9.09243 15.7558C8.99112 15.6538 8.8707 15.5726 8.73804 15.5171C8.60538 15.4616 8.46308 15.4327 8.31927 15.4322C8.02882 15.4311 7.74983 15.5454 7.54368 15.75L9.0866 17.3046ZM4.1866 15.75C3.9795 15.5515 3.7027 15.4423 3.41583 15.4459C3.12897 15.4495 2.85501 15.5657 2.65301 15.7694C2.45102 15.9732 2.33715 16.2481 2.33595 16.535C2.33475 16.8219 2.44631 17.0977 2.6466 17.3031L4.1866 15.75ZM27.6483 10.78C27.7216 10.9063 27.8194 11.0165 27.936 11.1044C28.0527 11.1922 28.1857 11.2558 28.3272 11.2914C28.4688 11.3271 28.6161 11.334 28.7604 11.3118C28.9047 11.2896 29.0431 11.2387 29.1674 11.1622C29.2917 11.0857 29.3995 10.985 29.4843 10.8662C29.5691 10.7474 29.6293 10.6128 29.6613 10.4703C29.6933 10.3279 29.6964 10.1805 29.6705 10.0368C29.6446 9.89313 29.5902 9.75609 29.5106 9.63376L27.6483 10.78ZM18.1151 3.28126C10.7549 3.28126 4.77139 9.20355 4.77139 16.5273H6.95889C6.95889 10.4286 11.9464 5.46876 18.1151 5.46876V3.28126ZM4.77139 16.5273V18.9583H6.95889V16.5273H4.77139ZM6.63806 19.7356L9.0866 17.3046L7.54368 15.75L5.09368 18.1811L6.63806 19.7356ZM6.63806 18.1825L4.1866 15.75L2.64514 17.3031L5.09514 19.7327L6.63806 18.1825ZM29.5106 9.63668C28.3131 7.6916 26.637 6.08603 24.6422 4.97337C22.6475 3.86071 20.3992 3.27812 18.1151 3.28126V5.46876C20.0259 5.46508 21.9071 5.95156 23.5761 6.8817C25.2452 7.81184 26.6477 9.15455 27.6497 10.7815L29.5106 9.63668ZM30.1245 16.0417L30.8931 15.2644C30.6883 15.0622 30.4122 14.9489 30.1245 14.9489C29.8368 14.9489 29.5607 15.0622 29.356 15.2644L30.1245 16.0417ZM26.8958 17.694C26.7936 17.795 26.7123 17.9152 26.6566 18.0476C26.6009 18.18 26.5717 18.3221 26.5709 18.4658C26.5693 18.756 26.683 19.0349 26.887 19.2413C27.091 19.4476 27.3687 19.5645 27.6588 19.5661C27.949 19.5677 28.228 19.454 28.4343 19.25L26.8958 17.694ZM31.8147 19.25C31.9163 19.3537 32.0375 19.4361 32.1712 19.4924C32.305 19.5488 32.4486 19.5779 32.5937 19.5782C32.7389 19.5785 32.8826 19.5499 33.0166 19.4941C33.1505 19.4383 33.2721 19.3564 33.374 19.2531C33.476 19.1499 33.5565 19.0274 33.6106 18.8927C33.6648 18.7581 33.6916 18.614 33.6896 18.4689C33.6875 18.3238 33.6566 18.1805 33.5986 18.0475C33.5406 17.9144 33.4567 17.7943 33.3518 17.694L31.8147 19.25ZM8.25535 24.2171C8.10296 23.9701 7.85871 23.7938 7.57633 23.727C7.29395 23.6601 6.99658 23.7081 6.74962 23.8605C6.50266 24.0129 6.32636 24.2572 6.25949 24.5396C6.19262 24.8219 6.24067 25.1193 6.39306 25.3663L8.25535 24.2171ZM17.8293 31.7188C25.2114 31.7188 31.2168 25.8008 31.2168 18.4727H29.0293C29.0293 24.5686 24.0272 29.5313 17.8293 29.5313V31.7188ZM31.2168 18.4727V16.0417H29.0293V18.4727H31.2168ZM29.356 15.2644L26.8958 17.694L28.4343 19.25L30.8931 16.819L29.356 15.2644ZM29.356 16.819L31.8147 19.25L33.3518 17.694L30.8931 15.2644L29.356 16.819ZM6.3916 25.3648C7.59711 27.3119 9.28094 28.918 11.2828 30.0302C13.2846 31.1424 15.5378 31.7237 17.8278 31.7188V29.5313C15.9111 29.5362 14.0251 29.0504 12.3492 28.1202C10.6734 27.19 9.26498 25.8463 8.25535 24.2171L6.3916 25.3648Z" fill="white"/>
</svg>
