<svg width="37" height="37" viewBox="0 0 37 37" fill="none" xmlns="http://www.w3.org/2000/svg">
<path d="M9.11855 2.31562C7.83184 2.65313 6.5873 3.6586 6.03887 4.80469C5.1459 6.68906 5.44121 8.72813 6.84043 10.2117C7.13574 10.5281 7.36777 10.7953 7.35371 10.8023C7.33965 10.8094 7.04434 10.957 6.6998 11.1258C4.73105 12.1031 3.2123 13.9664 2.60762 16.132C2.45996 16.6664 2.41777 17.0039 2.38965 17.8828L2.35449 18.9727L2.54434 19.1695L2.74121 19.3594H7.56465H12.3881L12.5287 19.6195C12.9154 20.3438 13.9842 21.5391 14.5537 21.8766C14.6592 21.9398 14.7436 22.0102 14.7436 22.0312C14.7436 22.0523 14.4975 22.1227 14.1951 22.193C13.4146 22.3828 12.2334 22.875 11.467 23.332C9.32246 24.6117 7.60684 26.7141 6.8334 29.0203C6.39043 30.3422 6.3623 30.5883 6.32715 33.1758L6.29199 35.5734L6.48184 35.7633L6.67871 35.9531H18.9623H31.2459L31.4428 35.7633L31.6326 35.5734L31.5975 33.1758C31.5623 30.5883 31.5342 30.3422 31.0912 29.0203C30.3178 26.7211 28.6021 24.6117 26.4646 23.3391C25.6631 22.8609 24.6787 22.4391 23.8279 22.2211L23.1811 22.0523L23.7295 21.5953C24.3271 21.0961 25.0162 20.2875 25.3396 19.7109L25.5365 19.3594H30.5006H35.4576L35.6545 19.1555L35.8584 18.9445L35.8162 17.8687C35.774 16.575 35.5912 15.8297 35.0639 14.7469C34.2764 13.1297 32.8842 11.7516 31.2951 11.0203L30.7818 10.7812L31.2037 10.3805C31.7311 9.88125 32.1811 9.15703 32.4342 8.42578C32.61 7.92656 32.6311 7.76484 32.6311 6.94922C32.6311 6.12656 32.61 5.97188 32.4271 5.44453C31.9068 3.91875 30.592 2.69531 29.0521 2.30859C28.5107 2.16797 27.2732 2.16797 26.7318 2.30859C25.424 2.63906 24.1725 3.64453 23.617 4.80469C22.724 6.68906 23.0193 8.72813 24.4186 10.2117C24.7139 10.5281 24.9459 10.7953 24.9318 10.8023C24.9178 10.8164 24.8193 10.8586 24.7209 10.9008C24.5521 10.9711 24.51 10.957 24.2639 10.6969C23.4834 9.89531 22.1545 9.11485 20.9662 8.77031C20.4459 8.61563 20.1436 8.58047 19.2365 8.55235C17.7248 8.50313 16.8318 8.68594 15.5803 9.31172C15.0107 9.59297 14.0896 10.2609 13.6959 10.6688C13.5061 10.8656 13.4287 10.9008 13.3303 10.8516C13.2248 10.7883 13.26 10.732 13.6256 10.3805C14.1529 9.88125 14.6029 9.15703 14.8561 8.42578C15.0318 7.92656 15.0529 7.76484 15.0529 6.94922C15.0529 6.12656 15.0318 5.97188 14.849 5.44453C14.3287 3.91875 13.0139 2.69531 11.474 2.30859C10.9467 2.175 9.63887 2.175 9.11855 2.31562ZM11.2912 3.81328C12.824 4.29141 13.8295 5.91563 13.5553 7.46953C13.0701 10.1906 9.77949 11.175 7.90215 9.17109C7.52949 8.77734 7.2623 8.2711 7.11465 7.7086C6.69277 6.09844 7.69121 4.3336 9.31543 3.81328C9.86387 3.64453 10.7357 3.6375 11.2912 3.81328ZM28.8693 3.81328C30.4021 4.29141 31.4076 5.91563 31.1334 7.46953C30.6482 10.1906 27.3576 11.175 25.4803 9.17109C25.1076 8.77734 24.8404 8.2711 24.6928 7.7086C24.2709 6.09844 25.2693 4.3336 26.8936 3.81328C27.442 3.64453 28.3139 3.6375 28.8693 3.81328ZM20.3686 10.1555C22.3092 10.5984 23.9053 12.082 24.6014 14.0859C24.8264 14.7398 24.8334 14.782 24.8334 15.9141C24.8334 17.0461 24.8264 17.0883 24.6014 17.7422C23.9475 19.6125 22.6467 20.9133 20.7553 21.5602C20.1998 21.75 20.0029 21.7781 19.1662 21.8063C17.985 21.8414 17.3662 21.7078 16.3256 21.1945C14.849 20.4633 13.8646 19.3242 13.3303 17.7422C13.1264 17.1586 13.0982 16.9617 13.0701 16.1461C13.049 15.443 13.0701 15.0914 13.1615 14.6836C13.6186 12.6094 15.1092 10.957 17.1201 10.2891C18.2029 9.93047 19.1943 9.88828 20.3686 10.1555ZM11.4318 11.8359C11.6287 11.8711 11.9662 11.9555 12.1701 12.0117L12.5568 12.1242L12.2826 12.7008C11.7904 13.7344 11.6357 14.3953 11.6006 15.6398C11.5725 16.4836 11.5865 16.8703 11.6779 17.2992C11.7412 17.6086 11.7904 17.8828 11.7904 17.9039C11.7904 17.932 10.0045 17.9531 7.81777 17.9531H3.84512V17.707C3.84512 16.9758 4.2459 15.7594 4.7873 14.8242C5.16699 14.1773 6.25684 13.0875 6.90371 12.7078C7.55762 12.3281 8.33809 12.0117 8.94277 11.8852C9.5123 11.7586 10.9045 11.7305 11.4318 11.8359ZM29.7201 12.0117C31.5342 12.6023 32.8771 13.7414 33.7209 15.4008C33.9951 15.9422 34.2693 16.8984 34.3326 17.4961L34.3818 17.9531H30.2545C27.9904 17.9531 26.1342 17.932 26.1342 17.9039C26.1342 17.8828 26.1834 17.6086 26.2467 17.2992C26.3381 16.8703 26.3521 16.4836 26.324 15.6398C26.2889 14.4164 26.1342 13.7414 25.6701 12.757C25.5365 12.4688 25.4381 12.2297 25.4451 12.2227C25.4592 12.2156 25.6068 12.1523 25.7826 12.0891C26.4717 11.8359 26.985 11.7656 28.0678 11.7938C28.9889 11.8148 29.1998 11.843 29.7201 12.0117ZM22.7592 23.4938C25.5646 24.0773 27.8428 25.7859 29.1506 28.2961C29.8889 29.7094 30.1279 30.7922 30.1912 33.0141L30.2334 34.5469H18.9623H7.69121L7.7334 33.0141C7.79668 30.7922 8.04277 29.6883 8.77402 28.2961C10.0607 25.8492 12.3178 24.1125 14.9615 23.5359C15.8404 23.3461 16.7193 23.3039 19.4545 23.332C21.7396 23.3531 22.1826 23.3742 22.7592 23.4938Z" fill="#4CAF50"/>
</svg>
