<svg width="37" height="37" viewBox="0 0 37 37" fill="none" xmlns="http://www.w3.org/2000/svg">
<path d="M27.6289 12.0469C28.6235 12.0469 29.5773 11.6518 30.2806 10.9485C30.9838 10.2453 31.3789 9.29144 31.3789 8.29687C31.3789 7.30231 30.9838 6.34849 30.2806 5.64522C29.5773 4.94196 28.6235 4.54688 27.6289 4.54688C26.6343 4.54688 25.6805 4.94196 24.9773 5.64522C24.274 6.34849 23.8789 7.30231 23.8789 8.29687C23.8789 9.29144 24.274 10.2453 24.9773 10.9485C25.6805 11.6518 26.6343 12.0469 27.6289 12.0469Z" stroke="#435CFF" stroke-width="1.66667"/>
<path d="M9.62884 13.3744L15.6311 11.2954L23.8788 15.2321L15.6311 21.3799L23.8788 26.8099L18.6348 33.7954M27.1188 17.0291L29.1303 18.1234L33.6288 13.8964M13.2656 24.4556L11.0381 27.3896L3.63184 31.5446" stroke="#435CFF" stroke-width="1.66667" stroke-linecap="round" stroke-linejoin="round"/>
</svg>
