<svg width="37" height="37" viewBox="0 0 37 37" fill="none" xmlns="http://www.w3.org/2000/svg">
<path d="M18.2124 29.2969V23.6659C16.8334 23.5639 15.6339 23.0644 14.6139 22.1674C13.5939 21.2704 12.9549 20.1414 12.6969 18.7804C11.1099 18.5934 9.7574 17.9429 8.6394 16.8289C7.5214 15.7149 6.9624 14.3709 6.9624 12.7969V12.2194C6.9624 11.5534 7.1999 10.9834 7.6749 10.5094C8.1499 10.0354 8.7199 9.79787 9.3849 9.79688H12.4434V9.21937C12.4434 8.55337 12.6804 7.98337 13.1544 7.50937C13.6294 7.03437 14.2004 6.79688 14.8674 6.79688H23.0604C23.7264 6.79688 24.2964 7.03437 24.7704 7.50937C25.2454 7.98337 25.4829 8.55337 25.4829 9.21937V9.79688H28.5414C29.2074 9.79688 29.7774 10.0344 30.2514 10.5094C30.7254 10.9844 30.9624 11.5544 30.9624 12.2194V12.7969C30.9624 14.3699 30.4034 15.7139 29.2854 16.8289C28.1674 17.9439 26.8149 18.5939 25.2279 18.7789C24.9699 20.1409 24.3309 21.2704 23.3109 22.1674C22.2909 23.0644 21.0914 23.5644 19.7124 23.6674V29.2969H23.6364C23.8484 29.2969 24.0264 29.3689 24.1704 29.5129C24.3144 29.6569 24.3864 29.8354 24.3864 30.0484C24.3864 30.2614 24.3144 30.4394 24.1704 30.5824C24.0264 30.7254 23.8484 30.7969 23.6364 30.7969H14.2899C14.0769 30.7969 13.8984 30.7249 13.7544 30.5809C13.6104 30.4369 13.5389 30.2584 13.5399 30.0454C13.5409 29.8324 13.6124 29.6544 13.7544 29.5114C13.8964 29.3684 14.0749 29.2969 14.2899 29.2969H18.2124ZM12.4434 17.1709V11.2969H9.3849C9.1159 11.2969 8.8949 11.3834 8.7219 11.5564C8.5489 11.7294 8.4624 11.9509 8.4624 12.2209V12.7969C8.4624 13.9199 8.8434 14.8964 9.6054 15.7264C10.3664 16.5564 11.3124 17.0379 12.4434 17.1709ZM18.9684 22.2004C20.3484 22.2004 21.5194 21.7179 22.4814 20.7529C23.4434 19.7889 23.9244 18.6174 23.9244 17.2384V9.22088C23.9244 8.95088 23.8374 8.72937 23.6634 8.55637C23.4914 8.38337 23.2704 8.29688 23.0004 8.29688H14.9244C14.6544 8.29688 14.4334 8.38337 14.2614 8.55637C14.0874 8.72937 14.0004 8.95088 14.0004 9.22088V17.2399C14.0004 18.6179 14.4834 19.7894 15.4494 20.7544C16.4164 21.7184 17.5899 22.2004 18.9699 22.2004M25.4814 17.1709C26.6124 17.0379 27.5589 16.5564 28.3209 15.7264C29.0819 14.8964 29.4624 13.9199 29.4624 12.7969V12.2194C29.4624 11.9504 29.3759 11.7294 29.2029 11.5564C29.0299 11.3834 28.8089 11.2969 28.5399 11.2969H25.4814V17.1709Z" fill="#FFA500"/>
</svg>
