<svg width="35" height="35" viewBox="0 0 35 35" fill="none" xmlns="http://www.w3.org/2000/svg">
<path d="M15.75 11.3749C15.7496 10.0586 16.0793 8.76313 16.7087 7.60703C17.3382 6.45093 18.2474 5.47107 19.3533 4.75703C20.4592 4.04299 21.7264 3.61756 23.0391 3.51963C24.3518 3.4217 25.6682 3.65439 26.8677 4.19644C26.9967 4.25469 27.1096 4.34334 27.1968 4.45481C27.284 4.56628 27.3428 4.69723 27.3683 4.83643C27.3938 4.97563 27.3851 5.11894 27.343 5.25405C27.301 5.38917 27.2267 5.51206 27.1267 5.61219L23.114 9.62494L25.375 11.8877L29.3877 7.87494C29.4877 7.77451 29.6106 7.69988 29.7459 7.65745C29.8811 7.61503 30.0246 7.60608 30.164 7.63139C30.3035 7.6567 30.4347 7.7155 30.5464 7.80273C30.6581 7.88997 30.7469 8.00303 30.8052 8.13219C31.2515 9.12269 31.5 10.2217 31.5 11.3749C31.5 13.4084 30.73 15.2617 29.4647 16.6599C28.8751 16.383 28.2588 16.1666 27.6255 16.0142C28.4563 15.3004 29.0799 14.3763 29.4309 13.3387C29.7818 12.3012 29.8473 11.1883 29.6205 10.1167L25.9945 13.7444C25.8304 13.9085 25.6079 14.0006 25.3759 14.0006C25.1438 14.0006 24.9213 13.9085 24.7572 13.7444L21.2572 10.2444C21.1757 10.1632 21.1111 10.0666 21.067 9.9603C21.0229 9.854 21.0002 9.74003 21.0002 9.62494C21.0002 9.50985 21.0229 9.39589 21.067 9.28958C21.1111 9.18328 21.1757 9.08672 21.2572 9.00544L24.885 5.37944C23.8634 5.16462 22.8038 5.21447 21.8069 5.52428C20.81 5.83408 19.9088 6.39355 19.1889 7.14957C18.469 7.9056 17.9543 8.83307 17.6936 9.84395C17.4329 10.8548 17.4349 11.9156 17.6995 12.9254C17.737 13.0706 17.7366 13.223 17.6983 13.3679C17.66 13.5128 17.5851 13.6455 17.4807 13.7532L5.90974 25.7477C5.46974 26.1984 5.2268 26.8054 5.23434 27.4352C5.24189 28.0649 5.49932 28.6659 5.94999 29.1059C6.40065 29.5459 7.00765 29.7889 7.63745 29.7813C8.26724 29.7738 8.86824 29.5164 9.30824 29.0657L16.408 21.8732C16.0158 22.8792 15.7958 23.9441 15.757 25.0232L10.5542 30.2942C9.79005 31.0772 8.74612 31.5245 7.6521 31.5378C6.55808 31.5511 5.5036 31.1293 4.72061 30.3651C3.93762 29.6009 3.49028 28.5569 3.47699 27.4629C3.4637 26.3689 3.88555 25.3144 4.64974 24.5314L15.8952 12.8799C15.7987 12.3841 15.75 11.8801 15.75 11.3749ZM18.6112 24.3599C19.0631 24.2444 19.4874 24.0396 19.859 23.7577C20.2307 23.4758 20.5422 23.1225 20.7754 22.7185C21.0085 22.3145 21.1585 21.8679 21.2166 21.4051C21.2748 20.9423 21.2398 20.4725 21.1137 20.0234L20.8425 19.0487C21.2882 18.7069 21.7671 18.4169 22.2792 18.1789L22.8707 18.8054C23.1978 19.1525 23.5923 19.429 24.0301 19.6181C24.4679 19.8072 24.9397 19.9048 25.4166 19.9049C25.8935 19.9051 26.3654 19.8078 26.8033 19.619C27.2412 19.4303 27.6359 19.154 27.9632 18.8072L28.5302 18.2052C29.0529 18.4525 29.54 18.7553 29.9915 19.1134L29.771 19.8519C29.6345 20.3087 29.5927 20.7886 29.6483 21.2622C29.7039 21.7357 29.8556 22.1928 30.0942 22.6056C30.3328 23.0184 30.6532 23.3781 31.0358 23.6626C31.4183 23.9471 31.855 24.1505 32.319 24.2602L32.9297 24.4037C32.9999 24.9946 33.0058 25.5913 32.9472 26.1834L32.1422 26.3899C31.6902 26.5053 31.2657 26.71 30.8939 26.9918C30.5221 27.2736 30.2103 27.6269 29.977 28.0309C29.7437 28.4349 29.5935 28.8815 29.5353 29.3444C29.4771 29.8073 29.512 30.2772 29.638 30.7264L29.911 31.6994C29.4641 32.0436 28.9847 32.3341 28.4725 32.5709L27.881 31.9444C27.5541 31.5976 27.1597 31.3211 26.7222 31.1321C26.2846 30.943 25.813 30.8453 25.3364 30.845C24.8597 30.8447 24.388 30.9417 23.9502 31.1302C23.5124 31.3186 23.1176 31.5945 22.7902 31.9409L22.2215 32.5447C21.7014 32.2994 21.2111 31.9952 20.7602 31.6382L20.9825 30.8979C21.1193 30.441 21.1612 29.961 21.1058 29.4872C21.0503 29.0135 20.8987 28.5561 20.6601 28.1431C20.4214 27.7302 20.1009 27.3703 19.7182 27.0857C19.3355 26.801 18.8987 26.5976 18.4345 26.4879L17.822 26.3444C17.7519 25.7541 17.7461 25.158 17.8045 24.5664L18.6112 24.3599ZM23.625 25.3749C23.625 25.8391 23.8094 26.2842 24.1375 26.6124C24.4657 26.9406 24.9109 27.1249 25.375 27.1249C25.8391 27.1249 26.2842 26.9406 26.6124 26.6124C26.9406 26.2842 27.125 25.8391 27.125 25.3749C27.125 24.9108 26.9406 24.4657 26.6124 24.1375C26.2842 23.8093 25.8391 23.6249 25.375 23.6249C24.9109 23.6249 24.4657 23.8093 24.1375 24.1375C23.8094 24.4657 23.625 24.9108 23.625 25.3749Z" fill="white"/>
</svg>
